<svg width="399" height="131" viewBox="0 0 399 131" fill="none" xmlns="http://www.w3.org/2000/svg">
<path d="M102.384 44.6968H113.259C110.727 33.592 104.962 23.4898 96.6933 15.6701C88.4249 7.8503 78.0256 2.66478 66.8127 0.770411V11.5303C75.2003 13.2771 82.9501 17.2918 89.2211 23.1387C95.492 28.9856 100.044 36.4414 102.384 44.6968Z" fill="#111111"/>
<path d="M114.681 57.4623C114.681 56.8297 114.681 56.2013 114.651 55.5729H55.4439V65.0804L75.8828 100.545C69.5507 103.288 62.6918 104.596 55.7964 104.375C48.901 104.155 42.1395 102.411 35.9952 99.2679C29.8509 96.1253 24.4756 91.6616 20.2536 86.1961C16.0316 80.7306 13.0672 74.3982 11.5723 67.6517C10.0774 60.9051 10.0889 53.9111 11.606 47.1695C13.1231 40.4279 16.1084 34.1054 20.3484 28.6539C24.5883 23.2023 29.9783 18.7565 36.1329 15.6341C42.2875 12.5118 49.0548 10.7901 55.9508 10.5921V0C47.4445 0.211845 39.0917 2.31622 31.4975 6.16069C23.9032 10.0052 17.2576 15.4935 12.0421 22.2281C6.82654 28.9628 3.17162 36.7751 1.34204 45.0993C-0.487536 53.4235 -0.445953 62.051 1.46378 70.3571C3.37351 78.6632 7.10358 86.4398 12.3838 93.1237C17.664 99.8076 24.3622 105.231 31.9932 109.002C39.6241 112.773 47.9968 114.797 56.5048 114.926C65.0127 115.056 73.443 113.288 81.1848 109.751L93.4344 131L101.628 126.266L89.43 105.107C97.213 99.8452 103.586 92.7482 107.989 84.4404C112.392 76.1325 114.69 66.8683 114.681 57.4623ZM66.3572 65.0416H103.527C102.516 71.2226 100.28 77.1384 96.9509 82.4399C93.6213 87.7414 89.2657 92.3214 84.1409 95.9097L66.3572 65.0416Z" fill="#111111"/>
<path d="M141.596 100.107C150.116 100.107 154.772 95.5322 156.88 90.5171H157.232V99.2276H166.016V55.499H156.529V80.1349C156.529 88.7574 152.4 91.9249 145.11 91.9249C137.555 91.9249 134.569 88.6694 134.569 80.8387V55.499H125.082V82.5105C125.082 92.4528 130.177 100.107 141.596 100.107Z" fill="#111111"/>
<path d="M187.131 100.107C195.388 100.107 200.395 96.5001 202.942 92.3648H203.382V99.2276H212.166V72.6561C212.166 62.0099 206.017 54.6192 193.807 54.6192C182.124 54.6192 174.482 61.658 174.482 71.4243V72.3042H183.617V70.9844C183.617 65.1774 186.341 62.9778 193.28 62.9778C200.132 62.9778 203.118 64.9134 203.118 71.4243V73.7999L187.834 76.0875C178.523 77.4073 173.252 81.1907 173.252 88.4054C173.252 96.0602 179.313 100.107 187.131 100.107ZM182.476 87.7016C182.476 84.4461 184.232 83.3023 189.239 82.5984L203.118 80.4868V81.2787C203.118 90.0772 196.354 92.5407 190.206 92.5407C184.672 92.5407 182.476 91.133 182.476 87.7016Z" fill="#111111"/>
<path d="M238.559 100.107C246.025 100.107 250.856 97.028 252.964 92.0128H253.316V99.2276H262.012V40.2776H252.613V62.2739H252.35C250.417 58.3145 245.762 54.6192 238.032 54.6192C225.997 54.6192 219.321 63.5057 219.321 77.3193C219.321 91.221 226.085 100.107 238.559 100.107ZM228.808 77.3193C228.808 66.5851 232.322 62.7138 240.667 62.7138C248.397 62.7138 252.613 66.1452 252.613 73.448V81.2787C252.613 88.5814 248.397 92.0128 240.667 92.0128C232.234 92.0128 228.808 88.1415 228.808 77.3193Z" fill="#111111"/>
<path d="M280.833 99.2276V70.7204C280.833 64.9134 282.942 62.7138 288.651 62.7138C294.185 62.7138 295.854 64.8254 295.854 70.6325V72.3922H305.341V69.4887C305.341 61.306 301.827 54.6192 292.692 54.6192C286.28 54.6192 282.239 58.1386 280.482 62.1859H280.043V55.2351H271.347V99.2276H280.833Z" fill="#111111"/>
<path d="M330.82 100.107C342.59 100.107 350.408 94.3004 350.408 85.326V84.5341H341.009V85.238C341.009 89.1973 338.198 91.6609 330.908 91.6609C321.772 91.6609 318.873 87.6136 318.522 79.6069H350.233C350.496 78.2872 350.76 75.9116 350.76 73.624C350.76 61.658 342.503 54.6192 330.732 54.6192C317.731 54.6192 309.65 63.7696 309.65 77.3193C309.65 90.957 316.414 100.107 330.82 100.107ZM330.556 62.6258C338.023 62.6258 342.063 65.7933 341.712 73.272H318.61C319.137 66.4972 322.299 62.6258 330.556 62.6258Z" fill="#111111"/>
<path d="M367.816 99.2276V73.9759C367.816 65.7933 371.33 62.8018 379.06 62.8018C387.054 62.8018 389.513 66.0572 389.513 73.8879V99.2276H399V71.7763C399 61.834 393.905 54.6192 382.574 54.6192C374.053 54.6192 369.398 59.0184 367.377 63.6816H367.026V55.499H358.33V99.2276H367.816Z" fill="#111111"/>
</svg>
