<svg width="113" height="128" viewBox="0 0 113 128" fill="none" xmlns="http://www.w3.org/2000/svg">
<g clip-path="url(#clip0_12_178)">
<path d="M100.334 43.6788H110.983C108.503 32.8269 102.858 22.9548 94.7605 15.3132C86.6635 7.67147 76.4797 2.60404 65.4991 0.752808V11.2677C73.713 12.9747 81.3022 16.898 87.4431 22.6118C93.5841 28.3255 98.0422 35.6114 100.334 43.6788Z" fill="#111111"/>
<path d="M112.376 56.1538C112.376 55.5355 112.376 54.9214 112.346 54.3074H110.028H54.3659V63.5983L74.3813 98.2555C68.1804 100.936 61.4636 102.214 54.7112 101.999C47.9587 101.783 41.3373 100.078 35.3203 97.0074C29.3034 93.9363 24.0395 89.5743 19.905 84.2332C15.7705 78.8922 12.8675 72.704 11.4036 66.1111C9.93963 59.5182 9.95091 52.6834 11.4366 46.0953C12.9223 39.5073 15.8457 33.3287 19.9978 28.0013C24.1499 22.674 29.4281 18.3293 35.4552 15.2781C41.4823 12.2269 48.1093 10.5444 54.8624 10.3509V0C46.5324 0.20702 38.3527 2.26347 30.9158 6.0204C23.4789 9.77733 16.9711 15.1407 11.8636 21.722C6.75618 28.3032 3.17699 35.9377 1.38533 44.0723C-0.406327 52.2069 -0.365605 60.638 1.50455 68.7549C3.3747 76.8719 7.02747 84.4714 12.1983 91.0031C17.369 97.5347 23.9284 102.835 31.4012 106.52C38.874 110.205 47.0732 112.182 55.4049 112.309C63.7365 112.436 71.992 110.708 79.5734 107.252L91.5692 128.017L99.593 123.39L87.6477 102.714C95.2694 97.5715 101.511 90.6361 105.822 82.5175C110.134 74.3988 112.384 65.3456 112.376 56.1538ZM65.0531 63.5605H101.453C100.463 69.6007 98.2733 75.3818 95.0128 80.5625C91.7522 85.7433 87.4869 90.219 82.4682 93.7256L65.0531 63.5605Z" fill="#111111"/>
</g>
<defs>
<clipPath id="clip0_12_178">
<rect width="112.376" height="128" fill="white"/>
</clipPath>
</defs>
</svg>
