<svg width="1102" height="407" viewBox="0 0 1102 407" fill="none" xmlns="http://www.w3.org/2000/svg">
<path d="M0.621582 4.33399V107H38.6776V54.602L64.6636 107H105.418V4.33399H67.2196V57.016L41.2336 4.33399H0.621582Z" fill="#EEEEEE"/>
<path d="M186.177 68.518V41.822H156.925V36H191.857V4.33399H117.023V107H193.277V75.334H156.925V68.518H186.177Z" fill="#EEEEEE"/>
<path d="M261.754 107V37.704H287.456V4.33399H194.446V37.704H220.148V107H261.754Z" fill="#EEEEEE"/>
<path d="M360.423 4.33399L342.673 68.234L327.195 4.33399H285.589L312.569 107H367.665L378.883 61.276L390.101 107H445.197L472.177 4.33399H430.571L415.235 68.234L397.201 4.33399H360.423Z" fill="#EEEEEE"/>
<path d="M527.972 110.55C563.614 110.55 587.044 88.682 587.044 55.738C587.044 22.652 563.614 0.783997 527.972 0.783997C492.472 0.783997 469.042 22.652 469.042 55.738C469.042 88.682 492.472 110.55 527.972 110.55ZM527.972 35.858C538.622 35.858 545.58 43.668 545.58 55.738C545.58 67.666 538.622 75.476 527.972 75.476C517.464 75.476 510.506 67.666 510.506 55.738C510.506 43.668 517.464 35.858 527.972 35.858Z" fill="#EEEEEE"/>
<path d="M641.981 32.592C648.371 32.592 654.193 36.142 654.193 42.248C654.193 48.78 648.371 52.188 641.981 52.188H636.017V32.592H641.981ZM640.277 76.896L654.335 107H699.491L676.771 71.926C688.841 65.962 695.799 56.164 695.799 42.248C695.799 19.244 678.049 4.33399 650.785 4.33399H594.553V107H636.017V76.896H640.277Z" fill="#EEEEEE"/>
<path d="M748.674 107V66.388L769.264 107H817.26L785.452 52.898L817.544 4.33399H769.406L748.674 41.254V4.33399H707.21V107H748.674Z" fill="#EEEEEE"/>
<path d="M820.977 107H862.441V4.33399H820.977V107Z" fill="#EEEEEE"/>
<path d="M874.282 4.33399V107H912.338V54.602L938.324 107H979.078V4.33399H940.88V57.016L914.894 4.33399H874.282Z" fill="#EEEEEE"/>
<path d="M1047.2 75.476C1035.98 75.476 1028.03 67.24 1028.03 55.738C1028.03 44.236 1035.41 35.858 1045.35 35.858C1052.03 35.858 1057.28 39.124 1058.7 43.526L1096.9 37.136C1092.78 15.978 1072.48 0.783997 1045.5 0.783997C1011.27 0.783997 986.565 23.93 986.565 55.738C986.565 87.404 1011.27 110.55 1045.5 110.55C1082.13 110.55 1105.42 83.712 1101.02 46.508H1043.93V68.092H1061.68C1060.55 72.494 1054.44 75.476 1047.2 75.476Z" fill="#EEEEEE"/>
<path d="M188.546 220.068C188.546 194.934 168.382 188.26 146.656 186.414C138.136 185.704 131.888 185.136 131.888 181.16C131.888 178.746 135.864 177.042 140.55 177.042C147.366 177.042 152.478 180.45 152.478 185.278H185.99C185.99 164.12 166.252 148.784 138.988 148.784C112.008 148.784 92.1279 163.41 92.1279 185.988C92.1279 210.696 112.008 217.512 134.586 219.784C142.822 220.636 148.786 221.346 148.786 225.606C148.786 228.304 144.668 230.292 139.84 230.292C132.882 230.292 127.202 226.316 127.06 220.778L92.1279 220.92C92.1279 242.788 111.582 258.55 138.42 258.55C167.246 258.55 188.546 243.214 188.546 220.068Z" fill="#EEEEEE"/>
<path d="M238.15 218.222H260.018V255H301.482V152.334H260.018V186.556H238.15V152.334H196.686V255H238.15V218.222Z" fill="#EEEEEE"/>
<path d="M367.903 258.55C403.545 258.55 426.975 236.682 426.975 203.738C426.975 170.652 403.545 148.784 367.903 148.784C332.403 148.784 308.973 170.652 308.973 203.738C308.973 236.682 332.403 258.55 367.903 258.55ZM367.903 183.858C378.553 183.858 385.511 191.668 385.511 203.738C385.511 215.666 378.553 223.476 367.903 223.476C357.395 223.476 350.437 215.666 350.437 203.738C350.437 191.668 357.395 183.858 367.903 183.858Z" fill="#EEEEEE"/>
<path d="M495.828 209.418C495.828 218.08 491.568 223.476 485.036 223.476C476.8 222.624 474.386 215.808 474.386 209.418V152.334H432.922V211.122C432.922 239.806 453.654 258.55 485.036 258.55C516.56 258.55 537.292 239.806 537.292 211.122V152.334H495.828V209.418Z" fill="#EEEEEE"/>
<path d="M618.273 219.926H589.021V152.334H547.557V255H618.273V219.926Z" fill="#EEEEEE"/>
<path d="M674.374 255C709.306 255 732.594 234.41 732.594 203.738C732.594 172.924 709.306 152.334 674.374 152.334H626.378V255H674.374ZM691.13 203.738C691.13 216.376 684.456 225.038 674.374 225.038H666.138V182.296H674.374C684.456 182.296 691.13 190.958 691.13 203.738Z" fill="#EEEEEE"/>
<path d="M839.098 221.772C839.098 224.896 836.258 226.742 831.856 226.742H820.354V214.956H831.856C836.258 214.956 839.098 217.654 839.098 221.772ZM828.448 180.592C833.276 180.592 836.258 182.722 836.258 186.13C836.258 189.538 833.276 191.81 828.448 191.81H820.354V180.592H828.448ZM841.654 255C866.22 255 882.408 245.486 882.408 228.446C882.408 214.956 876.018 205.726 865.51 203.454C874.172 200.756 879.568 192.804 879.568 181.16C879.568 164.83 862.67 152.334 837.11 152.334H778.89V255H841.654Z" fill="#EEEEEE"/>
<path d="M960.562 216.518V189.822H931.31V184H966.242V152.334H891.408V255H967.662V223.334H931.31V216.518H960.562Z" fill="#EEEEEE"/>
<path d="M154.227 364.518V337.822H124.975V332H159.907V300.334H85.0728V403H161.327V371.334H124.975V364.518H154.227Z" fill="#EEEEEE"/>
<path d="M237.756 343.36H210.35V335.408H246.276V300.334H168.886V403H210.35V373.464H237.756V343.36Z" fill="#EEEEEE"/>
<path d="M321.708 343.36H294.302V335.408H330.228V300.334H252.838V403H294.302V373.464H321.708V343.36Z" fill="#EEEEEE"/>
<path d="M391.602 406.55C427.244 406.55 450.674 384.682 450.674 351.738C450.674 318.652 427.244 296.784 391.602 296.784C356.102 296.784 332.672 318.652 332.672 351.738C332.672 384.682 356.102 406.55 391.602 406.55ZM391.602 331.858C402.252 331.858 409.21 339.668 409.21 351.738C409.21 363.666 402.252 371.476 391.602 371.476C381.094 371.476 374.136 363.666 374.136 351.738C374.136 339.668 381.094 331.858 391.602 331.858Z" fill="#EEEEEE"/>
<path d="M505.611 328.592C512.001 328.592 517.823 332.142 517.823 338.248C517.823 344.78 512.001 348.188 505.611 348.188H499.647V328.592H505.611ZM503.907 372.896L517.965 403H563.121L540.401 367.926C552.471 361.962 559.429 352.164 559.429 338.248C559.429 315.244 541.679 300.334 514.415 300.334H458.183V403H499.647V372.896H503.907Z" fill="#EEEEEE"/>
<path d="M628.985 403V333.704H654.687V300.334H561.677V333.704H587.379V403H628.985Z" fill="#EEEEEE"/>
<path d="M730.778 367.926H701.526V300.334H660.062V403H730.778V367.926Z" fill="#EEEEEE"/>
<path d="M808.037 364.518V337.822H778.785V332H813.717V300.334H738.883V403H815.137V371.334H778.785V364.518H808.037Z" fill="#EEEEEE"/>
<path d="M915.422 368.068C915.422 342.934 895.258 336.26 873.532 334.414C865.012 333.704 858.764 333.136 858.764 329.16C858.764 326.746 862.74 325.042 867.426 325.042C874.242 325.042 879.354 328.45 879.354 333.278H912.866C912.866 312.12 893.128 296.784 865.864 296.784C838.884 296.784 819.004 311.41 819.004 333.988C819.004 358.696 838.884 365.512 861.462 367.784C869.698 368.636 875.662 369.346 875.662 373.606C875.662 376.304 871.544 378.292 866.716 378.292C859.758 378.292 854.078 374.316 853.936 368.778L819.004 368.92C819.004 390.788 838.458 406.55 865.296 406.55C894.122 406.55 915.422 391.214 915.422 368.068Z" fill="#EEEEEE"/>
<path d="M1016.43 368.068C1016.43 342.934 996.267 336.26 974.541 334.414C966.021 333.704 959.773 333.136 959.773 329.16C959.773 326.746 963.749 325.042 968.435 325.042C975.251 325.042 980.363 328.45 980.363 333.278H1013.87C1013.87 312.12 994.137 296.784 966.873 296.784C939.893 296.784 920.013 311.41 920.013 333.988C920.013 358.696 939.893 365.512 962.471 367.784C970.707 368.636 976.671 369.346 976.671 373.606C976.671 376.304 972.553 378.292 967.725 378.292C960.767 378.292 955.087 374.316 954.945 368.778L920.013 368.92C920.013 390.788 939.467 406.55 966.305 406.55C995.131 406.55 1016.43 391.214 1016.43 368.068Z" fill="#EEEEEE"/>
</svg>
